<svg id="Icon_ionic-logo-instagram" data-name="Icon ionic-logo-instagram" xmlns="http://www.w3.org/2000/svg" width="42.899" height="42.899" viewBox="0 0 42.899 42.899">
  <path id="Path_19" data-name="Path 19" d="M34.887,8.075a8.963,8.963,0,0,1,8.937,8.937V34.887a8.963,8.963,0,0,1-8.937,8.937H17.012a8.963,8.963,0,0,1-8.937-8.937V17.012a8.964,8.964,0,0,1,8.937-8.937H34.887m0-3.575H17.012A12.549,12.549,0,0,0,4.5,17.012V34.887A12.549,12.549,0,0,0,17.012,47.4H34.887A12.549,12.549,0,0,0,47.4,34.887V17.012A12.549,12.549,0,0,0,34.887,4.5Z" transform="translate(-4.5 -4.5)" fill="#edf1f9"/>
  <path id="Path_20" data-name="Path 20" d="M26.306,14.362a2.681,2.681,0,1,1,2.681-2.681A2.675,2.675,0,0,1,26.306,14.362Z" transform="translate(6.762 -1.85)" fill="#edf1f9"/>
  <path id="Path_21" data-name="Path 21" d="M21.975,14.825a7.15,7.15,0,1,1-7.15,7.15,7.156,7.156,0,0,1,7.15-7.15m0-3.575A10.725,10.725,0,1,0,32.7,21.975,10.727,10.727,0,0,0,21.975,11.25Z" transform="translate(-0.525 -0.525)" fill="#edf1f9"/>
</svg>
