<svg xmlns="http://www.w3.org/2000/svg" width="50.049" height="50.049" viewBox="0 0 50.049 50.049">
  <path id="Icon_awesome-linkedin" data-name="Icon awesome-linkedin" d="M46.474,2.25H3.564A3.59,3.59,0,0,0,0,5.858V48.69A3.59,3.59,0,0,0,3.564,52.3h42.91a3.6,3.6,0,0,0,3.575-3.608V5.858A3.6,3.6,0,0,0,46.474,2.25Zm-31.347,42.9H7.708V21.264h7.429V45.149ZM11.417,18a4.3,4.3,0,1,1,4.3-4.3,4.3,4.3,0,0,1-4.3,4.3ZM42.932,45.149H35.514V33.53c0-2.771-.056-6.334-3.854-6.334-3.865,0-4.457,3.016-4.457,6.133V45.149H19.785V21.264H26.9v3.262H27a7.813,7.813,0,0,1,7.027-3.854c7.507,0,8.9,4.949,8.9,11.384Z" transform="translate(0 -2.25)" fill="#edf1f9"/>
</svg>
