<svg id="Logo-icono" xmlns="http://www.w3.org/2000/svg" xmlns:xlink="http://www.w3.org/1999/xlink" width="264.147" height="58.263" viewBox="0 0 264.147 58.263">
  <defs>
    <clipPath id="clip-path">
      <rect id="Rectangle_2" data-name="Rectangle 2" width="264.147" height="58.263" fill="#edf1f9"/>
    </clipPath>
  </defs>
  <path id="Path_1" data-name="Path 1" d="M0,59.812l6.041,2.816,18.815-8.774L0,42.266Z" transform="translate(0 -24.722)" fill="#edf1f9"/>
  <path id="Path_2" data-name="Path 2" d="M0,81.768V99.313L24.856,87.727V70.182Z" transform="translate(0 -41.05)" fill="#edf1f9"/>
  <path id="Path_3" data-name="Path 3" d="M84.736,0,59.88,11.586V29.132L84.736,17.545Z" transform="translate(-35.025)" fill="#edf1f9"/>
  <path id="Path_4" data-name="Path 4" d="M59.881,87.727,84.736,99.313V81.768L59.881,70.182Z" transform="translate(-35.025 -41.05)" fill="#edf1f9"/>
  <path id="Path_5" data-name="Path 5" d="M20.521,73.322l9.525-10.792,6.812,3.176Z" transform="translate(-12.003 -36.574)" fill="#edf1f9"/>
  <path id="Path_6" data-name="Path 6" d="M233.245,53.65,225.5,42.266h5.957l4.864,7.511,4.9-7.511h5.791l-7.743,11.317,8.074,11.847h-5.957l-5.195-7.941-5.228,7.941h-5.791Z" transform="translate(-131.705 -24.722)" fill="#edf1f9"/>
  <g id="Group_2" data-name="Group 2">
    <g id="Group_1" data-name="Group 1" clip-path="url(#clip-path)">
      <path id="Path_7" data-name="Path 7" d="M327.61,42.266H338.2q4.4,0,6.75,2.35a7.153,7.153,0,0,1,1.986,5.294v.066a7.267,7.267,0,0,1-1.374,4.583,7.962,7.962,0,0,1-3.591,2.6l5.659,8.273h-5.956l-4.964-7.412h-4V65.43h-5.1Zm10.259,11.251a4.232,4.232,0,0,0,2.895-.894,3.024,3.024,0,0,0,1.01-2.383v-.066a2.956,2.956,0,0,0-1.059-2.481,4.679,4.679,0,0,0-2.945-.827h-5.062v6.651Z" transform="translate(-191.623 -24.722)" fill="#edf1f9"/>
      <rect id="Rectangle_1" data-name="Rectangle 1" width="5.096" height="23.164" transform="translate(176.689 17.545)" fill="#edf1f9"/>
      <path id="Path_8" data-name="Path 8" d="M491.751,42.267h9.034a13.708,13.708,0,0,1,4.98.877,11.748,11.748,0,0,1,3.9,2.432,10.823,10.823,0,0,1,2.532,3.657,11.51,11.51,0,0,1,.893,4.549v.067a11.623,11.623,0,0,1-.893,4.566,10.772,10.772,0,0,1-2.532,3.673,11.934,11.934,0,0,1-3.9,2.449,13.461,13.461,0,0,1-4.98.894h-9.034Zm9.034,18.564a7.883,7.883,0,0,0,2.847-.5,6.133,6.133,0,0,0,2.2-1.423,6.681,6.681,0,0,0,1.422-2.184,7.383,7.383,0,0,0,.513-2.813v-.065a7.548,7.548,0,0,0-.513-2.813,6.6,6.6,0,0,0-1.422-2.217,6.329,6.329,0,0,0-2.2-1.439,7.635,7.635,0,0,0-2.847-.513h-3.937V60.831Z" transform="translate(-287.631 -24.722)" fill="#edf1f9"/>
      <path id="Path_9" data-name="Path 9" d="M593.952,42.266h17.439V46.8H598.982v4.7H609.9v4.533H598.982V60.9h12.574V65.43h-17.6Z" transform="translate(-347.409 -24.722)" fill="#edf1f9"/>
    </g>
  </g>
</svg>
